<svg id="Lager_1" data-name="Lager 1" xmlns="http://www.w3.org/2000/svg" xmlns:xlink="http://www.w3.org/1999/xlink" viewBox="0 0 365.78 212.89"><defs><style>.cls-1{font-size:12px;fill:#1d1d1b;font-family:MyriadPro-Regular, Myriad Pro;}.cls-2{letter-spacing:-0.01em;}.cls-3{letter-spacing:-0.01em;}.cls-4{letter-spacing:0em;}.cls-5{letter-spacing:-0.01em;}.cls-6{letter-spacing:0.01em;}.cls-7{letter-spacing:-0.01em;}.cls-8{letter-spacing:-0.01em;}.cls-9{letter-spacing:-0.01em;}.cls-10{letter-spacing:0em;}.cls-11{letter-spacing:-0.01em;}.cls-12{letter-spacing:0.01em;}.cls-13{fill:none;stroke:#be1622;stroke-miterlimit:10;stroke-width:2px;}.cls-14{fill:#be1622;}.cls-15{letter-spacing:-0.02em;}.cls-16{letter-spacing:0.01em;}.cls-17{letter-spacing:-0.01em;}</style></defs><image width="372" height="323" transform="translate(6.19 47.45) scale(0.49)" xlink:href="gfxlauncher1.png"/><text class="cls-1" transform="translate(22.84 14.3)">Specifies h<tspan class="cls-2" x="53.18" y="0">o</tspan><tspan x="59.69" y="0">w long </tspan><tspan class="cls-3" x="96.4" y="0">y</tspan><tspan x="101.93" y="0">ou </tspan><tspan x="9.24" y="14.4">need the applic</tspan><tspan class="cls-4" x="86.88" y="14.4">a</tspan><tspan x="92.62" y="14.4">tion.</tspan></text><text class="cls-1" transform="translate(163.26 14.3)"><tspan class="cls-5">A</tspan><tspan x="7.2" y="0">dditional job options </tspan><tspan x="0" y="14.4">can be specified he</tspan><tspan class="cls-3" x="95.79" y="14.4">r</tspan><tspan class="cls-5" x="99.6" y="14.4">e</tspan><tspan x="105.47" y="14.4">.</tspan></text><text class="cls-1" transform="translate(223.92 85.41)">Specifies the <tspan class="cls-6" x="65.71" y="0">t</tspan><tspan x="69.79" y="0">ype of </tspan><tspan class="cls-3" x="0" y="14.4">r</tspan><tspan x="3.8" y="14.4">esou</tspan><tspan class="cls-3" x="27.77" y="14.4">r</tspan><tspan class="cls-7" x="31.57" y="14.4">c</tspan><tspan x="36.88" y="14.4">es </tspan><tspan class="cls-3" x="50.18" y="14.4">y</tspan><tspan x="55.72" y="14.4">ou </tspan><tspan class="cls-4" x="71.46" y="14.4">w</tspan><tspan x="80.24" y="14.4">a</tspan><tspan class="cls-4" x="86.03" y="14.4">n</tspan><tspan x="92.64" y="14.4">t </tspan><tspan class="cls-8" x="99.16" y="14.4">t</tspan><tspan x="103.06" y="14.4">o use </tspan></text><text class="cls-1" transform="translate(223.92 119.21)"><tspan class="cls-9">A</tspan><tspan class="cls-10" x="7.2" y="0">dditional options </tspan><tspan class="cls-11" x="95.47" y="0">f</tspan><tspan x="98.82" y="0">or </tspan><tspan class="cls-3" x="111.87" y="0">y</tspan><tspan x="117.41" y="0">our </tspan><tspan x="0" y="14.4">sele</tspan><tspan class="cls-12" x="19.61" y="14.4">c</tspan><tspan class="cls-8" x="25.14" y="14.4">t</tspan><tspan x="29.04" y="14.4">ed </tspan><tspan class="cls-3" x="44.36" y="14.4">r</tspan><tspan x="48.17" y="14.4">esou</tspan><tspan class="cls-3" x="72.13" y="14.4">r</tspan><tspan class="cls-7" x="75.93" y="14.4">c</tspan><tspan x="81.24" y="14.4">e</tspan></text><line class="cls-13" x1="119.56" y1="82.29" x2="119.56" y2="35.56"/><polygon class="cls-14" points="123.92 78.97 119.56 80.83 115.19 78.97 119.56 89.33 123.92 78.97"/><line class="cls-13" x1="193.05" y1="102.34" x2="217.97" y2="90.67"/><polygon class="cls-14" points="197.9 104.9 194.37 101.73 194.19 96.98 186.67 105.33 197.9 104.9"/><line class="cls-13" x1="193.71" y1="123.11" x2="217.97" y2="123.11"/><polygon class="cls-14" points="197.03 127.48 195.17 123.11 197.03 118.74 186.67 123.11 197.03 127.48"/><line class="cls-13" x1="193.01" y1="142.17" x2="217.97" y2="154.22"/><polygon class="cls-14" points="194.1 147.55 194.32 142.81 197.9 139.68 186.67 139.11 194.1 147.55"/><text class="cls-1" transform="translate(223.92 153.01)"><tspan class="cls-15">P</tspan><tspan class="cls-3" x="6.19" y="0">r</tspan><tspan class="cls-10" x="10" y="0">oje</tspan><tspan class="cls-16" x="25.51" y="0">c</tspan><tspan x="31.04" y="0">t which will be used </tspan><tspan class="cls-17" x="0" y="14.4">f</tspan><tspan x="3.35" y="14.4">or running the applic</tspan><tspan class="cls-4" x="108.62" y="14.4">a</tspan><tspan x="114.36" y="14.4">tion.</tspan></text><line class="cls-13" x1="176.89" y1="80.51" x2="176.89" y2="35.56"/><polygon class="cls-14" points="181.26 77.2 176.89 79.05 172.52 77.2 176.89 87.56 181.26 77.2"/></svg>